<svg height="608" viewBox="0 0 608 608" width="608" xmlns="http://www.w3.org/2000/svg"><g fill="none" fill-rule="evenodd"><rect fill="#000" height="608" rx="26" width="608"/><g fill-rule="nonzero"><path d="m93.378 323.5c-10.878-1.122-28.518 6.006-33.378-6.75-3-7.878 21.966-71.766 34.878-84 7.122-6.75-4.524-23.16 1.122-33.75 22.212-41.64 24.126-50.28 42.366-81.954 2.874-4.998 17.586-16.602 23.034-23.994 4.794-8.634 16.62-29.25 24.6-32.052 28.164392-9.901389 54.494033-18.7134767 85.756233-23.5456602 16.003404-2.4736387 33.29939-3.9043398 52.795767-3.9043398 13.172106 0 4.163593.9512751 16.781392 2.8719522 50.823198 7.7362904 95.58368 31.2001184 121.664608 71.5760478 31.002 48 31.002 80.004 44.004 118.002 6.552 19.14 34.482 47.202 42 66 9.996 25.002-1.188 66.834-9 76.002-23.004 27-67.098 50.34-74.004 63-6 10.998-.03 41.988 14.004 48 22.002-6.996 24.996-18 43.998-15-10.998 21-6.966 29.61-9 36-7.002 21.996-15.762 16.836-15 28.998 1.002 16.002 58.998 31.998 61.002 79.002h-467c42-63 72.882-60.432 103.998-116.004 12.744-22.752 0-38.568-24.75-44.748-29.634-7.398-82.878-3.378-87.378-28.5-2.184-12.204 9.75-23.628 10.128-37.5.234-8.628-6.75-18.378-6.75-18.378s6-27.372 4.128-39.372z" fill="#fff"/><path d="m211.705579 393c25.652203 0 43.846418-16.968792 54.582644-50.906377 6.474518-20.382632 9.711777-43.777476 9.711777-70.184532 0-23.394844-2.704545-42.873813-8.113636-58.436906-9.752755-28.31479-27.455235-42.472185-53.107438-42.472185-19.013774 0-33.397039 7.430122-43.149794 22.290366-9.752755 14.860245-14.629132 32.080055-14.629132 51.65943 0 20.382633 4.937844 37.050204 14.813533 50.002714s23.295971 19.428765 40.260847 19.428765c8.359504 0 16.165806-1.932835 23.418905-5.798507s13.338327-10.567843 18.255682-20.106513c-3.114325 33.033921-8.400482 54.947761-15.858471 65.74152-7.457989 10.793758-16.473141 16.190637-27.045455 16.190637-5.654958 0-10.736226-1.506105-15.243801-4.518317-8.769284-5.723202-13.48175-16.065129-14.137397-31.02578h-22.373967c0 16.667571 4.466598 30.523745 13.399793 41.568521 8.933196 11.044776 22.005166 16.567164 39.21591 16.567164zm3.355932-103c-12.220269 0-21.118922-4.103175-26.695957-12.309524-5.577036-8.206349-8.365554-19.272487-8.365554-33.198413 0-14.721693 3.17809-26.484126 9.534271-35.287301 6.35618-8.803175 14.947276-13.204762 25.773286-13.204762 10.087874 0 18.391916 3.854497 24.912127 11.563492s9.780316 19.421693 9.780316 35.138095c0 17.506879-3.629174 29.766667-10.887522 36.779365-7.258348 7.012699-15.275337 10.519048-24.050967 10.519048zm165.644068 103c25.652203 0 43.846418-16.968792 54.582644-50.906377 6.474518-20.382632 9.711777-43.777476 9.711777-70.184532 0-23.394844-2.704545-42.873813-8.113636-58.436906-9.752755-28.31479-27.455235-42.472185-53.107438-42.472185-19.013774 0-33.397039 7.430122-43.149794 22.290366-9.752755 14.860245-14.629132 32.080055-14.629132 51.65943 0 20.382633 4.937844 37.050204 14.813533 50.002714s23.295971 19.428765 40.260847 19.428765c8.359504 0 16.165806-1.932835 23.418905-5.798507s13.338327-10.567843 18.255682-20.106513c-3.114325 33.033921-8.400482 54.947761-15.858471 65.74152-7.457989 10.793758-16.473141 16.190637-27.045455 16.190637-5.654958 0-10.736226-1.506105-15.243801-4.518317-8.769284-5.723202-13.48175-16.065129-14.137397-31.02578h-22.373967c0 16.667571 4.466598 30.523745 13.399793 41.568521 8.933196 11.044776 22.005166 16.567164 39.21591 16.567164zm3.355932-103c-12.220269 0-21.118922-4.103175-26.695957-12.309524-5.577036-8.206349-8.365554-19.272487-8.365554-33.198413 0-14.721693 3.17809-26.484126 9.534271-35.287301 6.35618-8.803175 14.947276-13.204762 25.773286-13.204762 10.087874 0 18.391916 3.854497 24.912127 11.563492s9.780316 19.421693 9.780316 35.138095c0 17.506879-3.629174 29.766667-10.887522 36.779365-7.258348 7.012699-15.275337 10.519048-24.050967 10.519048z" fill="#000"/></g></g></svg>